<mxfile host="65bd71144e">
    <diagram name="工作流程详解" id="workflow-detail">
        <mxGraphModel dx="1053" dy="899" grid="1" gridSize="10" guides="1" tooltips="1" connect="1" arrows="1" fold="1" page="1" pageScale="1" pageWidth="1169" pageHeight="827" math="0" shadow="0">
            <root>
                <mxCell id="0"/>
                <mxCell id="1" parent="0"/>
                <mxCell id="title" value="DeepSearch 工作流程详解" style="text;html=1;strokeColor=none;fillColor=none;align=center;verticalAlign=middle;whiteSpace=wrap;rounded=0;fontSize=20;fontStyle=1;fontColor=#2E5984;" parent="1" vertex="1">
                    <mxGeometry x="450" y="20" width="280" height="30" as="geometry"/>
                </mxCell>
                <mxCell id="start" value="开始" style="ellipse;whiteSpace=wrap;html=1;fillColor=#C8E6C9;strokeColor=#4CAF50;fontStyle=1;" parent="1" vertex="1">
                    <mxGeometry x="140" y="60" width="80" height="40" as="geometry"/>
                </mxCell>
                <mxCell id="init_phase" value="初始化阶段" style="rounded=1;whiteSpace=wrap;html=1;fillColor=#E1F5FE;strokeColor=#01579B;strokeWidth=2;verticalAlign=top;fontStyle=1;fontSize=14;" parent="1" vertex="1">
                    <mxGeometry x="80" y="140" width="200" height="120" as="geometry"/>
                </mxCell>
                <mxCell id="load_env" value="📁 加载环境变量" style="rounded=1;whiteSpace=wrap;html=1;fillColor=#FFFFFF;strokeColor=#01579B;" parent="1" vertex="1">
                    <mxGeometry x="100" y="170" width="160" height="30" as="geometry"/>
                </mxCell>
                <mxCell id="create_nodes" value="🔧 创建工作流节点" style="rounded=1;whiteSpace=wrap;html=1;fillColor=#FFFFFF;strokeColor=#01579B;" parent="1" vertex="1">
                    <mxGeometry x="100" y="210" width="160" height="30" as="geometry"/>
                </mxCell>
                <mxCell id="decision_phase" value="搜索决策" style="rounded=1;whiteSpace=wrap;html=1;fillColor=#F3E5F5;strokeColor=#4A148C;strokeWidth=2;verticalAlign=top;fontStyle=1;fontSize=14;" parent="1" vertex="1">
                    <mxGeometry x="320" y="140" width="200" height="180" as="geometry"/>
                </mxCell>
                <mxCell id="analyze_context" value="🔍 分析当前信息" style="rounded=1;whiteSpace=wrap;html=1;fillColor=#FFFFFF;strokeColor=#4A148C;" parent="1" vertex="1">
                    <mxGeometry x="340" y="170" width="160" height="30" as="geometry"/>
                </mxCell>
                <mxCell id="check_gaps" value="🕳️ 识别信息缺口" style="rounded=1;whiteSpace=wrap;html=1;fillColor=#FFFFFF;strokeColor=#4A148C;" parent="1" vertex="1">
                    <mxGeometry x="340" y="210" width="160" height="30" as="geometry"/>
                </mxCell>
                <mxCell id="generate_queries" value="🎯 生成搜索策略" style="rounded=1;whiteSpace=wrap;html=1;fillColor=#FFFFFF;strokeColor=#4A148C;" parent="1" vertex="1">
                    <mxGeometry x="340" y="250" width="160" height="30" as="geometry"/>
                </mxCell>
                <mxCell id="decision_logic" value="❓ 继续搜索?" style="rhombus;whiteSpace=wrap;html=1;fillColor=#FFF3E0;strokeColor=#EF6C00;fontStyle=1;" parent="1" vertex="1">
                    <mxGeometry x="640" y="415" width="80" height="50" as="geometry"/>
                </mxCell>
                <mxCell id="search_phase" value="信息搜索" style="rounded=1;whiteSpace=wrap;html=1;fillColor=#E8F5E8;strokeColor=#2E7D32;strokeWidth=2;verticalAlign=top;fontStyle=1;fontSize=14;" parent="1" vertex="1">
                    <mxGeometry x="580" y="140" width="200" height="180" as="geometry"/>
                </mxCell>
                <mxCell id="execute_search" value="🌐 执行网络搜索" style="rounded=1;whiteSpace=wrap;html=1;fillColor=#FFFFFF;strokeColor=#2E7D32;" parent="1" vertex="1">
                    <mxGeometry x="600" y="170" width="160" height="30" as="geometry"/>
                </mxCell>
                <mxCell id="filter_results" value="🔍 内容相关性判断" style="rounded=1;whiteSpace=wrap;html=1;fillColor=#FFFFFF;strokeColor=#2E7D32;" parent="1" vertex="1">
                    <mxGeometry x="600" y="210" width="160" height="30" as="geometry"/>
                </mxCell>
                <mxCell id="collect_useful" value="📚 收集有用信息" style="rounded=1;whiteSpace=wrap;html=1;fillColor=#FFFFFF;strokeColor=#2E7D32;" parent="1" vertex="1">
                    <mxGeometry x="600" y="250" width="160" height="30" as="geometry"/>
                </mxCell>
                <mxCell id="update_context" value="🔄 更新信息上下文" style="rounded=1;whiteSpace=wrap;html=1;fillColor=#FFFFFF;strokeColor=#2E7D32;" parent="1" vertex="1">
                    <mxGeometry x="600" y="290" width="160" height="30" as="geometry"/>
                </mxCell>
                <mxCell id="termination_check" value="终止条件检查" style="rounded=1;whiteSpace=wrap;html=1;fillColor=#FFEBEE;strokeColor=#C62828;strokeWidth=2;verticalAlign=top;fontStyle=1;fontSize=14;" parent="1" vertex="1">
                    <mxGeometry x="820" y="140" width="200" height="180" as="geometry"/>
                </mxCell>
                <mxCell id="check_rounds" value="🔢 检查搜索轮次" style="rounded=1;whiteSpace=wrap;html=1;fillColor=#FFFFFF;strokeColor=#C62828;" parent="1" vertex="1">
                    <mxGeometry x="840" y="170" width="160" height="30" as="geometry"/>
                </mxCell>
                <mxCell id="check_quality" value="⭐ 评估信息质量" style="rounded=1;whiteSpace=wrap;html=1;fillColor=#FFFFFF;strokeColor=#C62828;" parent="1" vertex="1">
                    <mxGeometry x="840" y="210" width="160" height="30" as="geometry"/>
                </mxCell>
                <mxCell id="check_invalid" value="🚫 检查无效轮数" style="rounded=1;whiteSpace=wrap;html=1;fillColor=#FFFFFF;strokeColor=#C62828;" parent="1" vertex="1">
                    <mxGeometry x="840" y="250" width="160" height="30" as="geometry"/>
                </mxCell>
                <mxCell id="completeness_check" value="✅ 信息完整性评估" style="rounded=1;whiteSpace=wrap;html=1;fillColor=#FFFFFF;strokeColor=#C62828;" parent="1" vertex="1">
                    <mxGeometry x="840" y="290" width="160" height="30" as="geometry"/>
                </mxCell>
                <mxCell id="report_phase" value="报告生成阶段" style="rounded=1;whiteSpace=wrap;html=1;fillColor=#FFF3E0;strokeColor=#EF6C00;strokeWidth=2;verticalAlign=top;fontStyle=1;fontSize=14;" parent="1" vertex="1">
                    <mxGeometry x="320" y="380" width="200" height="120" as="geometry"/>
                </mxCell>
                <mxCell id="analyze_data" value="📊 分析收集数据" style="rounded=1;whiteSpace=wrap;html=1;fillColor=#FFFFFF;strokeColor=#EF6C00;" parent="1" vertex="1">
                    <mxGeometry x="340" y="410" width="160" height="30" as="geometry"/>
                </mxCell>
                <mxCell id="generate_report" value="📝 生成研究报告" style="rounded=1;whiteSpace=wrap;html=1;fillColor=#FFFFFF;strokeColor=#EF6C00;" parent="1" vertex="1">
                    <mxGeometry x="340" y="450" width="160" height="30" as="geometry"/>
                </mxCell>
                <mxCell id="output" value="输出结果&#xa;研究报告" style="ellipse;whiteSpace=wrap;html=1;fillColor=#C8E6C9;strokeColor=#4CAF50;fontStyle=1;" parent="1" vertex="1">
                    <mxGeometry x="90" y="410" width="100" height="60" as="geometry"/>
                </mxCell>
                <mxCell id="early_stop" value="提前终止" style="ellipse;whiteSpace=wrap;html=1;fillColor=#FFCDD2;strokeColor=#F44336;fontStyle=1;" parent="1" vertex="1">
                    <mxGeometry x="880" y="405" width="80" height="40" as="geometry"/>
                </mxCell>
                <mxCell id="arrow1" value="" style="edgeStyle=orthogonalEdgeStyle;rounded=0;orthogonalLoop=1;jettySize=auto;html=1;strokeWidth=2;strokeColor=#4A90E2;" parent="1" source="start" target="init_phase" edge="1">
                    <mxGeometry relative="1" as="geometry"/>
                </mxCell>
                <mxCell id="arrow2" value="" style="edgeStyle=orthogonalEdgeStyle;rounded=0;orthogonalLoop=1;jettySize=auto;html=1;strokeWidth=2;strokeColor=#4A90E2;entryX=0;entryY=0.333;entryDx=0;entryDy=0;entryPerimeter=0;" parent="1" source="init_phase" target="decision_phase" edge="1">
                    <mxGeometry relative="1" as="geometry">
                        <mxPoint x="310" y="200" as="targetPoint"/>
                        <Array as="points"/>
                    </mxGeometry>
                </mxCell>
                <mxCell id="arrow3" value="是" style="edgeStyle=orthogonalEdgeStyle;rounded=0;orthogonalLoop=1;jettySize=auto;html=1;strokeWidth=2;strokeColor=#4A90E2;labelBackgroundColor=#FFFFFF;" parent="1" source="decision_logic" target="search_phase" edge="1">
                    <mxGeometry relative="1" as="geometry">
                        <Array as="points">
                            <mxPoint x="680" y="410"/>
                            <mxPoint x="680" y="410"/>
                        </Array>
                    </mxGeometry>
                </mxCell>
                <mxCell id="arrow4" value="" style="edgeStyle=orthogonalEdgeStyle;rounded=0;orthogonalLoop=1;jettySize=auto;html=1;strokeWidth=2;strokeColor=#4A90E2;" parent="1" source="search_phase" target="termination_check" edge="1">
                    <mxGeometry relative="1" as="geometry"/>
                </mxCell>
                <mxCell id="arrow5" value="否" style="edgeStyle=orthogonalEdgeStyle;rounded=0;orthogonalLoop=1;jettySize=auto;html=1;strokeWidth=2;strokeColor=#4A90E2;labelBackgroundColor=#FFFFFF;exitX=0;exitY=0.5;exitDx=0;exitDy=0;" parent="1" source="decision_logic" target="report_phase" edge="1">
                    <mxGeometry relative="1" as="geometry">
                        <Array as="points">
                            <mxPoint x="620" y="440"/>
                            <mxPoint x="620" y="440"/>
                        </Array>
                    </mxGeometry>
                </mxCell>
                <mxCell id="arrow6" value="" style="edgeStyle=orthogonalEdgeStyle;rounded=0;orthogonalLoop=1;jettySize=auto;html=1;strokeWidth=2;strokeColor=#4A90E2;entryX=1;entryY=0.5;entryDx=0;entryDy=0;" parent="1" source="report_phase" target="output" edge="1">
                    <mxGeometry relative="1" as="geometry"/>
                </mxCell>
                <mxCell id="loop_arrow" value="继续搜索" style="edgeStyle=orthogonalEdgeStyle;rounded=0;orthogonalLoop=1;jettySize=auto;html=1;strokeWidth=2;strokeColor=#FF9800;labelBackgroundColor=#FFFFFF;exitX=0.75;exitY=1;exitDx=0;exitDy=0;" parent="1" source="completeness_check" target="decision_phase" edge="1">
                    <mxGeometry relative="1" as="geometry">
                        <Array as="points">
                            <mxPoint x="970" y="320"/>
                            <mxPoint x="970" y="530"/>
                            <mxPoint x="290" y="530"/>
                            <mxPoint x="290" y="230"/>
                        </Array>
                    </mxGeometry>
                </mxCell>
                <mxCell id="early_stop_arrow" value="达到终止条件" style="edgeStyle=orthogonalEdgeStyle;rounded=0;orthogonalLoop=1;jettySize=auto;html=1;strokeWidth=2;strokeColor=#F44336;labelBackgroundColor=#FFFFFF;" parent="1" source="termination_check" target="early_stop" edge="1">
                    <mxGeometry relative="1" as="geometry"/>
                </mxCell>
                <mxCell id="loop_annotation" value="智能搜索循环&#xa;多轮迭代优化" style="text;html=1;strokeColor=#FF9800;fillColor=#FFF3E0;align=center;verticalAlign=middle;whiteSpace=wrap;rounded=1;fontSize=12;fontStyle=2;" parent="1" vertex="1">
                    <mxGeometry x="80" y="540" width="120" height="50" as="geometry"/>
                </mxCell>
                <mxCell id="features" value="核心特性" style="rounded=1;whiteSpace=wrap;html=1;fillColor=#F5F5F5;strokeColor=#666666;strokeWidth=2;verticalAlign=top;fontStyle=1;fontSize=14;" parent="1" vertex="1">
                    <mxGeometry x="80" y="620" width="940" height="120" as="geometry"/>
                </mxCell>
                <mxCell id="feature1" value="🧠 LLM驱动决策&#xa;智能分析信息缺口" style="rounded=1;whiteSpace=wrap;html=1;fillColor=#E1F5FE;strokeColor=#01579B;" parent="1" vertex="1">
                    <mxGeometry x="100" y="650" width="140" height="60" as="geometry"/>
                </mxCell>
                <mxCell id="feature2" value="🎯 提示词工程&#xa;自定义结构化输出" style="rounded=1;whiteSpace=wrap;html=1;fillColor=#F3E5F5;strokeColor=#4A148C;" parent="1" vertex="1">
                    <mxGeometry x="260" y="650" width="140" height="60" as="geometry"/>
                </mxCell>
                <mxCell id="feature3" value="🔄 pocketflow编排&#xa;声明式工作流" style="rounded=1;whiteSpace=wrap;html=1;fillColor=#E8F5E8;strokeColor=#2E7D32;" parent="1" vertex="1">
                    <mxGeometry x="420" y="650" width="140" height="60" as="geometry"/>
                </mxCell>
                <mxCell id="feature4" value="🛡️ 智能容错&#xa;多层次终止控制" style="rounded=1;whiteSpace=wrap;html=1;fillColor=#FFEBEE;strokeColor=#C62828;" parent="1" vertex="1">
                    <mxGeometry x="580" y="650" width="140" height="60" as="geometry"/>
                </mxCell>
                <mxCell id="feature5" value="📊 结构化输出&#xa;Markdown报告生成" style="rounded=1;whiteSpace=wrap;html=1;fillColor=#FFF3E0;strokeColor=#EF6C00;" parent="1" vertex="1">
                    <mxGeometry x="740" y="650" width="140" height="60" as="geometry"/>
                </mxCell>
                <mxCell id="feature6" value="🚀 高效搜索&#xa;自适应深度调节" style="rounded=1;whiteSpace=wrap;html=1;fillColor=#FFFDE7;strokeColor=#FBC02D;" parent="1" vertex="1">
                    <mxGeometry x="900" y="650" width="100" height="60" as="geometry"/>
                </mxCell>
            </root>
        </mxGraphModel>
    </diagram>
</mxfile>